<svg width="15" height="11" viewBox="0 0 15 11" fill="none" xmlns="http://www.w3.org/2000/svg">
<path d="M9.94547 0.252229L14.7513 4.92603C14.9105 5.08097 15 5.29107 15 5.51015C15 5.72923 14.9105 5.93934 14.7513 6.09427L9.94547 10.7681C9.78524 10.9186 9.57065 11.0019 9.34791 11C9.12516 10.9981 8.91209 10.9112 8.75458 10.758C8.59707 10.6048 8.50772 10.3976 8.50579 10.181C8.50385 9.96435 8.58948 9.75566 8.74423 9.59983L12.0999 6.33635H0.849532C0.624222 6.33635 0.40814 6.2493 0.248822 6.09436C0.0895039 5.93942 0 5.72927 0 5.51015C0 5.29103 0.0895039 5.08088 0.248822 4.92594C0.40814 4.771 0.624222 4.68395 0.849532 4.68395H12.0999L8.74423 1.42047C8.66309 1.34426 8.59837 1.25309 8.55385 1.15229C8.50933 1.05149 8.48589 0.943079 8.48491 0.833377C8.48393 0.723675 8.50542 0.614882 8.54814 0.513345C8.59085 0.411808 8.65394 0.319562 8.7337 0.241988C8.81347 0.164414 8.90832 0.103066 9.01272 0.0615243C9.11713 0.0199824 9.22899 -0.000922086 9.34179 3.11942e-05C9.45459 0.000984475 9.56607 0.0237762 9.66971 0.0670764C9.77336 0.110377 9.8671 0.173318 9.94547 0.252229Z" fill="#222222"/>
</svg>
