<svg width="58" height="59" viewBox="0 0 58 59" fill="none" xmlns="http://www.w3.org/2000/svg">
<path d="M57.6895 26.9757C57.6895 12.1012 45.5882 0 30.7139 0C24.474 0 18.389 2.18047 13.5798 6.13942C12.8814 6.71457 12.7813 7.74678 13.3564 8.44504C13.9313 9.14365 14.9634 9.24343 15.662 8.66862C19.8861 5.19118 25.2316 3.27605 30.7139 3.27605C43.7818 3.27605 54.4135 13.9076 54.4135 26.9757C54.4135 34.1716 51.1295 40.9652 45.5577 45.4497C45.5509 45.4425 45.5443 45.4351 45.5375 45.4281C44.9217 44.7626 44.279 44.131 43.6757 43.5473C43.6697 43.5413 43.6634 43.5354 43.6571 43.5295C43.3786 43.2683 43.0896 42.98 42.8104 42.7009L40.1043 39.9943C38.7847 38.6751 37.2167 37.9778 35.5694 37.9778C33.9219 37.9778 32.354 38.6751 31.0347 39.9943C30.9057 40.1236 30.7743 40.2525 30.6429 40.3815C30.4956 40.5264 30.3484 40.6711 30.2132 40.8064L30.0116 41.0053C29.609 41.4018 29.1982 41.8064 28.7869 42.2269C27.921 41.7448 27.0288 41.1327 26.0067 40.3247C24.538 39.1257 19.1302 33.7179 17.9308 32.2489C17.1226 31.2266 16.5105 30.3345 16.0284 29.4683C16.4465 29.0592 16.8488 28.6509 17.2433 28.2504L17.4393 28.0514C17.5853 27.9057 17.7311 27.7575 17.8767 27.6091C18.0048 27.4787 18.1329 27.3483 18.2608 27.2204C20.9306 24.5508 20.9306 20.8215 18.2608 18.1509L16.9736 16.8639C17.4819 16.1754 18.0426 15.5218 18.6514 14.9129C25.3032 8.2614 36.1258 8.2614 42.7772 14.9129C47.8857 20.0212 49.2237 27.8291 46.1073 34.3413C45.7168 35.1572 46.0618 36.1354 46.8778 36.5259C47.1059 36.635 47.3466 36.6865 47.5838 36.6865C48.1946 36.6865 48.7812 36.343 49.0625 35.7551C52.7776 27.9918 51.1825 18.6849 45.0937 12.5961C37.1648 4.66745 24.2641 4.66745 16.3351 12.5961C15.7311 13.2003 15.1672 13.8423 14.6449 14.514C14.0774 13.9281 13.4672 13.3091 12.8275 12.7173C11.5696 11.4829 10.0487 10.8305 8.42678 10.8305C6.80269 10.8305 5.26337 11.4843 3.97471 12.721C3.96663 12.7288 3.95866 12.7367 3.95081 12.7445L3.93136 12.764C3.92715 12.7682 3.92282 12.7726 3.91861 12.777L2.63029 14.0942C1.1061 15.6213 0.23683 17.4866 0.0456809 19.6488C-0.214305 22.8155 0.689444 25.6993 1.39158 27.5931C3.04354 32.0504 5.50356 36.1592 9.13722 40.5278C10.4379 42.0812 11.8441 43.5648 13.3172 44.9379C14.6898 46.4103 16.1734 47.8165 17.7316 49.1215C22.0962 52.7515 26.205 55.2117 30.6619 56.8635C32.2725 57.4607 34.7318 58.255 37.4802 58.2551C37.4802 58.2551 37.4803 58.2551 37.4805 58.2551C37.8592 58.2551 38.2381 58.2398 38.6166 58.2086C40.769 58.0185 42.6346 57.1488 44.1619 55.624L45.4782 54.3368C45.4824 54.3327 45.4869 54.3285 45.4909 54.3244L45.5104 54.3049C45.5185 54.2968 45.5263 54.2887 45.5342 54.2808C46.7711 52.9924 47.4247 51.4528 47.4247 49.8284C47.4247 49.3086 47.3569 48.7994 47.2253 48.3057C53.7993 43.2083 57.6895 35.3307 57.6895 26.9757ZM43.1812 52.0004L41.8645 53.2882C41.86 53.2923 41.8556 53.2968 41.8514 53.3012C40.8678 54.2848 39.7153 54.8225 38.338 54.9442C38.0584 54.9673 37.7698 54.979 37.4803 54.979H37.48C35.2583 54.9788 33.1748 54.3013 31.8003 53.7915C27.7016 52.2726 23.8967 49.9881 19.8302 46.6062C18.3648 45.3789 16.9669 44.0525 15.6752 42.6635C15.6481 42.6344 15.6201 42.6064 15.591 42.5793C14.2015 41.2871 12.8749 39.8892 11.6517 38.4286C8.26635 34.3582 5.982 30.5532 4.46271 26.4541C3.86889 24.8534 3.1035 22.4336 3.30921 19.9271C3.43209 18.5395 3.96981 17.3868 4.95344 16.4034C4.95765 16.3992 4.96208 16.3948 4.96641 16.3905L6.25405 15.0737C6.91795 14.4408 7.66878 14.1065 8.42655 14.1065C9.17647 14.1065 9.90864 14.4387 10.544 15.0671C10.5574 15.0802 10.5708 15.0932 10.5847 15.1059C11.1921 15.667 11.7893 16.2743 12.3444 16.8479C12.6373 17.1597 12.9403 17.4633 13.2334 17.7567L15.9439 20.467C17.3536 21.8769 17.3538 23.4939 15.9439 24.9038C15.8091 25.0387 15.6743 25.1758 15.5396 25.3132C15.4017 25.4536 15.2635 25.5941 15.116 25.7413L14.9091 25.9511C14.2682 26.6017 13.6054 27.2746 12.9128 27.9082C12.3903 28.3862 12.2342 29.1459 12.5257 29.7913C13.1768 31.2318 14.08 32.6614 15.3682 34.29C15.373 34.2959 15.3777 34.3018 15.3824 34.3076C16.7112 35.9403 22.314 41.543 23.9467 42.8717C23.9526 42.8765 23.9586 42.8814 23.9644 42.8859C25.5929 44.1742 27.0223 45.0775 28.463 45.7285C29.1086 46.0203 29.8683 45.864 30.3461 45.3416C30.982 44.6467 31.657 43.9816 32.31 43.3386L32.5226 43.129C32.6597 42.9917 32.7991 42.8546 32.9388 42.7173C33.0769 42.5817 33.2152 42.4459 33.3509 42.3101C34.0424 41.6185 34.8092 41.2531 35.5689 41.2531C36.3286 41.2531 37.0957 41.6186 37.7874 42.3101L40.495 45.0184C40.7895 45.3123 41.0937 45.6161 41.4066 45.9097C41.9788 46.4634 42.5854 47.0596 43.1486 47.6694C43.1612 47.6832 43.1743 47.6967 43.1876 47.7102C43.6258 48.1531 44.1481 48.88 44.1481 49.8275C44.1482 50.586 43.814 51.3368 43.1812 52.0004Z" fill="#FF4545"/>
<path d="M31.268 29.3974H27.1201C27.136 28.8997 27.9021 28.3753 28.7878 27.7689C30.3103 26.7268 32.2052 25.4297 32.2052 23.1756C32.2052 20.8563 30.1451 19.605 28.2067 19.605C26.3241 19.605 24.3233 20.77 24.3233 22.9288C24.3233 23.9219 24.766 24.4256 25.6392 24.4256C26.6222 24.4256 27.1526 23.8578 27.1526 23.3237C27.1526 22.4389 27.7347 22.2532 28.2232 22.2532C29.0253 22.2532 29.3101 22.7946 29.3101 23.258C29.3101 24.1648 28.1834 24.9917 26.9905 25.8673C25.5821 26.9012 24.1257 27.9699 24.1257 29.4132V31.0096C24.1257 31.6005 24.873 31.9635 25.4086 31.9635H31.2677C31.7669 31.9635 32.205 31.3562 32.205 30.664C32.2052 29.9774 31.776 29.3974 31.268 29.3974Z" fill="#FF4545"/>
<path d="M40.0395 26.731H39.4956V25.7428C39.4956 25.1734 38.9274 24.8055 38.0481 24.8055C37.1688 24.8055 36.6006 25.1733 36.6006 25.7428V26.731H35.6139L38.4128 21.1169C38.4624 21.0013 38.5082 20.8754 38.5082 20.7397C38.5082 20.0356 37.5709 19.6047 37.0607 19.6047C36.5261 19.6047 36.0946 19.87 35.845 20.3523L32.0455 27.8037C31.9135 28.0452 31.8938 28.2657 31.8938 28.3759C31.8938 29.0055 32.3034 29.4284 32.9133 29.4284H36.6007V31.0091C36.6007 31.6644 37.3511 31.9629 38.0482 31.9629C38.7454 31.9629 39.4957 31.6644 39.4957 31.0091V29.4284H40.0396C40.5299 29.4284 40.9934 28.773 40.9934 28.0797C40.9932 27.4302 40.6947 26.731 40.0395 26.731Z" fill="#FF4545"/>
</svg>
