<svg width="38" height="38" viewBox="0 0 38 38" fill="none" xmlns="http://www.w3.org/2000/svg">
<ellipse cx="18.7652" cy="19" rx="18.7652" ry="19" fill="#222222"/>
<path d="M17.1319 27.7829V20.7054H14.4292C14.2889 20.7054 14.1543 20.6496 14.0551 20.5501C13.9559 20.4507 13.9001 20.3158 13.9001 20.1751V17.3759C13.9001 17.2352 13.9559 17.1004 14.0551 17.0009C14.1543 16.9015 14.2889 16.8456 14.4292 16.8456H17.1212V14.1358C17.0568 13.4932 17.1336 12.8443 17.3461 12.2346C17.5586 11.6249 17.9018 11.0692 18.3514 10.6066C18.8011 10.144 19.3463 9.78562 19.9489 9.55672C20.5514 9.32782 21.1967 9.23392 21.8393 9.28161H24.0915C24.2332 9.28133 24.3693 9.33688 24.4705 9.43626C24.5716 9.53565 24.6297 9.67091 24.6323 9.81286V12.183C24.6292 12.3248 24.5709 12.4596 24.4698 12.5587C24.3688 12.6579 24.233 12.7134 24.0915 12.7133H22.6839C21.1636 12.7133 20.8714 13.4353 20.8714 14.4968V16.8446H24.4857C24.5608 16.8421 24.6356 16.8561 24.7048 16.8855C24.774 16.9149 24.8359 16.959 24.8864 17.0148C24.9368 17.0707 24.9745 17.1369 24.9969 17.2088C25.0192 17.2807 25.0257 17.3567 25.0157 17.4313L24.6886 20.2413C24.6722 20.37 24.6093 20.4882 24.5118 20.5736C24.4143 20.6589 24.289 20.7055 24.1595 20.7044H20.8938V27.7819C20.8956 27.907 20.8724 28.0311 20.8254 28.147C20.7785 28.2629 20.7088 28.3681 20.6205 28.4565C20.5323 28.5449 20.4272 28.6146 20.3115 28.6615C20.1959 28.7084 20.072 28.7316 19.9472 28.7296H18.0668C17.943 28.73 17.8204 28.7057 17.7061 28.6581C17.5918 28.6105 17.4881 28.5405 17.4011 28.4523C17.314 28.3641 17.2454 28.2593 17.1992 28.1443C17.153 28.0292 17.1301 27.907 17.1319 27.7829Z" fill="white"/>
</svg>
