<svg width="56" height="53" viewBox="0 0 56 53" fill="none" xmlns="http://www.w3.org/2000/svg">
<path d="M28.3019 11.1385H27.6979C26.8013 11.1385 26.0745 10.4115 26.0745 9.51505C26.0745 8.61862 26.8013 7.8916 27.6979 7.8916H28.3019C29.1983 7.8916 29.9253 8.61862 29.9253 9.51505C29.9253 10.4115 29.1984 11.1385 28.3019 11.1385Z" fill="#FF4545"/>
<path d="M21.7212 40.3179L27.9986 35.4443L34.276 40.3179H21.7212Z" fill="#FF4545"/>
<path d="M54.3764 7.89172H41.632C41.6349 7.80466 41.6372 7.7177 41.6372 7.63031C41.6372 3.42288 38.2143 0 34.0069 0C31.57 0 29.3981 1.14975 28.0001 2.93343C26.6021 1.14953 24.4301 0 21.9932 0C17.7858 0 14.3629 3.42288 14.3629 7.63031C14.3629 7.7177 14.3652 7.80466 14.3681 7.89172H1.62345C0.726796 7.89172 0 8.61873 0 9.51517V20.0401C0 20.9365 0.726796 21.6635 1.62345 21.6635H4.21618V50.8701C4.21618 51.7665 4.94298 52.4936 5.83963 52.4936H50.1604C51.0568 52.4936 51.7838 51.7665 51.7838 50.8701V28.163C51.7838 27.2666 51.0568 26.5396 50.1604 26.5396C49.2639 26.5396 48.5369 27.2666 48.5369 28.163V49.2468H35.9006V40.3176C35.9006 39.8161 35.6688 39.3428 35.2728 39.0354L28.9955 34.1618C28.4096 33.7067 27.5899 33.7069 27.0043 34.1617L20.7269 39.0353C20.3307 39.343 20.0989 39.8164 20.0989 40.3177V49.2469H7.46308V21.6636H20.099V31.9297C20.099 32.5494 20.452 33.1153 21.0087 33.3877C21.2353 33.4987 21.4793 33.5532 21.7224 33.5532C22.0764 33.5532 22.428 33.4375 22.7182 33.2121L28.0001 29.1115L33.282 33.2121C33.7714 33.592 34.4348 33.6599 34.9913 33.3877C35.548 33.1152 35.901 32.5494 35.901 31.9297V11.1386H52.7531V18.4166H42.2866C41.3902 18.4166 40.6631 19.1437 40.6631 20.0401C40.6631 20.9365 41.3902 21.6635 42.2866 21.6635H54.3766C55.273 21.6635 56 20.9365 56 20.0401V9.51517C55.9999 8.61852 55.2731 7.89172 54.3764 7.89172ZM23.3458 41.1127L27.9998 37.4995L32.6537 41.1127V49.2469H23.3458V41.1127ZM20.099 18.4166H3.2469V11.1386H20.099V18.4166ZM21.7226 7.89161H17.6173C17.6123 7.80488 17.6097 7.71792 17.6097 7.63042C17.6097 5.21335 19.576 3.24701 21.9931 3.24701C24.4102 3.24701 26.3765 5.21335 26.3765 7.63042C26.3765 7.71792 26.3739 7.80499 26.3688 7.89161H21.7226ZM32.6541 28.6141L28.9956 25.7738C28.7027 25.5466 28.3514 25.4327 28.0001 25.4327C27.6487 25.4327 27.2974 25.5463 27.0045 25.7738L23.3462 28.6141V11.1385H27.6982H28.3021H32.6542V28.6141H32.6541ZM38.3826 7.89161H34.2774H29.6311C29.626 7.80488 29.6234 7.71792 29.6234 7.63042C29.6234 5.21335 31.5897 3.24701 34.0068 3.24701C36.4239 3.24701 38.3902 5.21335 38.3902 7.63042C38.3902 7.7177 38.3876 7.80488 38.3826 7.89161Z" fill="#FF4545"/>
</svg>
