<svg width="38" height="38" viewBox="0 0 38 38" fill="none" xmlns="http://www.w3.org/2000/svg">
<ellipse cx="18.7652" cy="19" rx="18.7652" ry="19" fill="#222222"/>
<path fill-rule="evenodd" clip-rule="evenodd" d="M15.6133 11.4004C16.4286 11.3628 16.6885 11.3545 18.7652 11.3545C20.8419 11.3545 21.1018 11.3635 21.9164 11.4004C22.7309 11.4372 23.2869 11.5672 23.7734 11.7555C24.2829 11.948 24.745 12.249 25.1273 12.6382C25.5165 13.0197 25.8167 13.4812 26.0086 13.9914C26.1976 14.4779 26.3269 15.0339 26.3644 15.847C26.4019 16.6637 26.4103 16.9236 26.4103 18.9996C26.4103 21.0756 26.4012 21.3362 26.3644 22.1514C26.3276 22.9646 26.1976 23.5206 26.0086 24.0071C25.8167 24.5173 25.5159 24.9795 25.1273 25.3617C24.745 25.7509 24.2829 26.0511 23.7734 26.2429C23.2869 26.432 22.7309 26.5613 21.9178 26.5988C21.1018 26.6363 20.8419 26.6447 18.7652 26.6447C16.6885 26.6447 16.4286 26.6356 15.6133 26.5988C14.8002 26.562 14.2442 26.432 13.7577 26.2429C13.2475 26.051 12.7853 25.7503 12.4031 25.3617C12.0143 24.9798 11.7133 24.5178 11.5211 24.0078C11.3328 23.5213 11.2035 22.9653 11.166 22.1521C11.1285 21.3355 11.1201 21.0756 11.1201 18.9996C11.1201 16.9236 11.1292 16.663 11.166 15.8484C11.2028 15.0339 11.3328 14.4779 11.5211 13.9914C11.7135 13.4813 12.0147 13.0193 12.4038 12.6375C12.7855 12.2488 13.2472 11.9478 13.757 11.7555C14.2435 11.5672 14.8002 11.4379 15.6133 11.4004ZM21.8538 12.7765C21.0476 12.7396 20.8057 12.732 18.7645 12.732C16.7233 12.732 16.4814 12.7396 15.6752 12.7765C14.9295 12.8105 14.525 12.9349 14.2553 13.0399C13.8988 13.1789 13.6437 13.3436 13.3761 13.6112C13.1222 13.8578 12.927 14.1582 12.8048 14.4904C12.6999 14.76 12.5755 15.1645 12.5414 15.9103C12.5046 16.7165 12.4969 16.9583 12.4969 18.9996C12.4969 21.0408 12.5046 21.2827 12.5414 22.0889C12.5755 22.8346 12.6999 23.2391 12.8048 23.5088C12.9271 23.8403 13.1224 24.1412 13.3761 24.388C13.6228 24.6416 13.9238 24.8369 14.2553 24.9593C14.525 25.0642 14.9295 25.1886 15.6752 25.2227C16.4814 25.2595 16.7226 25.2672 18.7645 25.2672C20.8064 25.2672 21.0476 25.2595 21.8538 25.2227C22.5996 25.1886 23.0041 25.0642 23.2737 24.9593C23.6303 24.8203 23.8853 24.6555 24.1529 24.388C24.4066 24.1412 24.6019 23.8403 24.7242 23.5088C24.8291 23.2391 24.9535 22.8346 24.9876 22.0889C25.0244 21.2827 25.0321 21.0408 25.0321 18.9996C25.0321 16.9583 25.0244 16.7165 24.9876 15.9103C24.9535 15.1645 24.8291 14.76 24.7242 14.4904C24.5852 14.1338 24.4205 13.8788 24.1529 13.6112C23.9063 13.3573 23.6059 13.1621 23.2737 13.0399C23.0041 12.9349 22.5996 12.8105 21.8538 12.7765ZM17.788 21.3563C18.3334 21.5834 18.9406 21.614 19.506 21.443C20.0715 21.2721 20.56 20.9101 20.8882 20.419C21.2164 19.9278 21.3639 19.338 21.3055 18.7501C21.2471 18.1623 20.9864 17.613 20.568 17.196C20.3013 16.9295 19.9788 16.7254 19.6238 16.5984C19.2687 16.4715 18.8899 16.4248 18.5146 16.4618C18.1394 16.4988 17.777 16.6186 17.4536 16.8125C17.1302 17.0064 16.8538 17.2695 16.6442 17.583C16.4347 17.8966 16.2974 18.2526 16.242 18.6256C16.1866 18.9986 16.2146 19.3793 16.324 19.7401C16.4334 20.101 16.6214 20.4331 16.8746 20.7126C17.1277 20.992 17.4397 21.2119 17.788 21.3563ZM15.9866 16.2209C16.3515 15.856 16.7847 15.5666 17.2614 15.3691C17.7382 15.1716 18.2492 15.07 18.7652 15.07C19.2812 15.07 19.7922 15.1716 20.269 15.3691C20.7457 15.5666 21.1789 15.856 21.5438 16.2209C21.9087 16.5858 22.1982 17.019 22.3957 17.4958C22.5931 17.9725 22.6948 18.4835 22.6948 18.9996C22.6948 19.5156 22.5931 20.0266 22.3957 20.5034C22.1982 20.9801 21.9087 21.4133 21.5438 21.7782C20.8069 22.5152 19.8074 22.9292 18.7652 22.9292C17.723 22.9292 16.7235 22.5152 15.9866 21.7782C15.2496 21.0413 14.8356 20.0418 14.8356 18.9996C14.8356 17.9574 15.2496 16.9579 15.9866 16.2209ZM23.5663 15.6552C23.6567 15.5699 23.7291 15.4673 23.7792 15.3535C23.8293 15.2398 23.856 15.1171 23.8578 14.9928C23.8596 14.8685 23.8365 14.7451 23.7897 14.6299C23.743 14.5147 23.6736 14.4101 23.5857 14.3222C23.4978 14.2343 23.3932 14.1649 23.278 14.1182C23.1628 14.0715 23.0394 14.0483 22.9151 14.0501C22.7908 14.0519 22.6682 14.0787 22.5544 14.1288C22.4406 14.1788 22.338 14.2512 22.2527 14.3416C22.0869 14.5175 21.996 14.7511 21.9996 14.9928C22.0031 15.2345 22.1007 15.4654 22.2716 15.6363C22.4426 15.8073 22.6734 15.9049 22.9151 15.9084C23.1569 15.9119 23.3905 15.8211 23.5663 15.6552Z" fill="white"/>
</svg>
