<svg width="38" height="38" viewBox="0 0 38 38" fill="none" xmlns="http://www.w3.org/2000/svg">
<ellipse cx="18.7652" cy="19" rx="18.7652" ry="19" fill="#222222"/>
<path fill-rule="evenodd" clip-rule="evenodd" d="M16.7996 16.6824H19.639V18.0967C20.048 17.2833 21.097 16.5524 22.6726 16.5524C25.6932 16.5524 26.4103 18.1716 26.4103 21.1425V26.6447H23.3523V21.8191C23.3523 20.1272 22.9432 19.1731 21.902 19.1731C20.4578 19.1731 19.8577 20.2014 19.8577 21.8183V26.6447H16.7996V16.6824ZM11.5559 26.5147H14.6139V16.5524H11.5559V26.5147ZM15.052 13.304C15.0521 13.5603 15.0013 13.8141 14.9024 14.0506C14.8036 14.2871 14.6588 14.5016 14.4763 14.6816C14.2933 14.8637 14.0762 15.0079 13.8375 15.106C13.5988 15.2041 13.343 15.2542 13.0849 15.2535C12.5647 15.2523 12.0657 15.0473 11.695 14.6824C11.5133 14.5017 11.369 14.287 11.2703 14.0504C11.1717 13.8139 11.1206 13.5603 11.1201 13.304C11.1201 12.7864 11.3265 12.291 11.6958 11.9256C12.0656 11.5593 12.5652 11.354 13.0857 11.3545C13.6071 11.3545 14.1071 11.5601 14.4763 11.9256C14.8456 12.291 15.052 12.7864 15.052 13.304Z" fill="white"/>
</svg>
