<svg width="24" height="24" viewBox="0 0 24 24" fill="none" xmlns="http://www.w3.org/2000/svg">
<path fill-rule="evenodd" clip-rule="evenodd" d="M8.90625 13.125C8.90625 12.951 8.97539 12.784 9.09846 12.661C9.22153 12.5379 9.38845 12.4688 9.5625 12.4688H14.8125C14.9865 12.4688 15.1535 12.5379 15.2765 12.661C15.3996 12.784 15.4688 12.951 15.4688 13.125C15.4688 13.299 15.3996 13.466 15.2765 13.589C15.1535 13.7121 14.9865 13.7812 14.8125 13.7812H9.5625C9.38845 13.7812 9.22153 13.7121 9.09846 13.589C8.97539 13.466 8.90625 13.299 8.90625 13.125Z" fill="#757575"/>
<path d="M12.1875 1.3125C13.0577 1.3125 13.8923 1.6582 14.5077 2.27356C15.123 2.88891 15.4688 3.72351 15.4688 4.59375V5.25H8.90625V4.59375C8.90625 3.72351 9.25195 2.88891 9.86731 2.27356C10.4827 1.6582 11.3173 1.3125 12.1875 1.3125ZM16.7812 5.25V4.59375C16.7812 3.37541 16.2973 2.20697 15.4358 1.34548C14.5743 0.483983 13.4058 0 12.1875 0C10.9692 0 9.80072 0.483983 8.93923 1.34548C8.07773 2.20697 7.59375 3.37541 7.59375 4.59375V5.25H3V18.375C3 19.0712 3.27656 19.7389 3.76884 20.2312C4.26113 20.7234 4.92881 21 5.625 21H18.75C19.4462 21 20.1139 20.7234 20.6062 20.2312C21.0984 19.7389 21.375 19.0712 21.375 18.375V5.25H16.7812ZM4.3125 6.5625H20.0625V18.375C20.0625 18.7231 19.9242 19.0569 19.6781 19.3031C19.4319 19.5492 19.0981 19.6875 18.75 19.6875H5.625C5.2769 19.6875 4.94306 19.5492 4.69692 19.3031C4.45078 19.0569 4.3125 18.7231 4.3125 18.375V6.5625Z" fill="#757575"/>
</svg>
