<svg width="24" height="24" viewBox="0 0 24 24" fill="none" xmlns="http://www.w3.org/2000/svg">
<path fill-rule="evenodd" clip-rule="evenodd" d="M12.0009 1.24984C9.37763 1.24984 7.25098 3.37649 7.25098 5.99984C7.25098 8.62319 9.37763 10.7498 12.0009 10.7498C14.6243 10.7498 16.7509 8.62319 16.7509 5.99984C16.7509 3.37649 14.6243 1.24984 12.0009 1.24984ZM8.75098 5.99984C8.75098 4.20491 10.206 2.74984 12.0009 2.74984C13.7959 2.74984 15.2509 4.20491 15.2509 5.99984C15.2509 7.79477 13.7959 9.24984 12.0009 9.24984C10.206 9.24984 8.75098 7.79477 8.75098 5.99984Z" fill="#757575"/>
<path fill-rule="evenodd" clip-rule="evenodd" d="M12.0008 12.2498C9.68731 12.2498 7.55579 12.7757 5.97631 13.6641C4.42035 14.5394 3.25086 15.8659 3.25086 17.4998L3.2508 17.6018C3.24967 18.7636 3.24825 20.2218 4.52728 21.2633C5.15675 21.7759 6.03734 22.1404 7.22707 22.3813C8.42013 22.6227 9.97509 22.7498 12.0008 22.7498C14.0266 22.7498 15.5816 22.6227 16.7746 22.3813C17.9644 22.1404 18.845 21.7759 19.4744 21.2633C20.7534 20.2218 20.752 18.7636 20.7509 17.6018L20.7508 17.4998C20.7508 15.8659 19.5814 14.5394 18.0254 13.6641C16.4459 12.7757 14.3144 12.2498 12.0008 12.2498ZM4.75086 17.4998C4.75086 16.6485 5.37224 15.7249 6.71171 14.9715C8.02766 14.2313 9.89614 13.7498 12.0008 13.7498C14.1056 13.7498 15.974 14.2313 17.29 14.9715C18.6295 15.7249 19.2508 16.6485 19.2508 17.4998C19.2508 18.8076 19.2105 19.5438 18.5272 20.1002C18.1567 20.402 17.5373 20.6965 16.477 20.9111C15.4201 21.125 13.9751 21.2498 12.0008 21.2498C10.0266 21.2498 8.5816 21.125 7.52466 20.9111C6.46439 20.6965 5.84498 20.402 5.47445 20.1002C4.79118 19.5438 4.75086 18.8076 4.75086 17.4998Z" fill="#757575"/>
</svg>
