<svg width="64" height="48" viewBox="0 0 64 48" fill="none" xmlns="http://www.w3.org/2000/svg">
<path d="M13.6168 26.4875C14.5687 26.4875 15.3403 25.7158 15.3403 24.764C15.3403 23.8124 14.5687 23.0405 13.6168 23.0405C9.94094 23.0405 6.9502 26.0311 6.9502 29.7073C6.9502 33.3831 9.94094 36.3739 13.6168 36.3739C15.4632 36.3739 17.1797 35.6184 18.412 34.3423C19.6247 35.5936 21.321 36.3739 23.197 36.3739C26.8732 36.3739 29.8636 33.3831 29.8636 29.7073C29.8636 26.0311 26.8729 23.0405 23.197 23.0405C19.5212 23.0405 16.5306 26.0311 16.5306 29.7073C16.5306 30.1008 16.5668 30.4855 16.6324 30.8604C16.616 30.8933 16.5988 30.9255 16.5843 30.9599C16.0788 32.1549 14.9142 32.9269 13.6169 32.9269C11.8416 32.9269 10.3972 31.4825 10.3972 29.7071C10.3973 27.9319 11.8416 26.4875 13.6168 26.4875ZM23.1973 26.4875C24.9727 26.4875 26.417 27.9319 26.417 29.7074C26.417 31.4828 24.9727 32.9271 23.1973 32.9271C21.4219 32.9271 19.9775 31.4828 19.9775 29.7074C19.9775 27.9319 21.4218 26.4875 23.1973 26.4875Z" fill="#FF4545"/>
<path d="M57.6671 25.2522V8.97848C57.6671 8.02686 56.8954 7.25499 55.9436 7.25499H3.44687V3.44699H55.9436C56.8953 3.44699 57.6671 2.67525 57.6671 1.7235C57.6671 0.771749 56.8954 0 55.9436 0H1.7235C0.771623 0.000125 0 0.771874 0 1.72362V40.5215C0 41.4732 0.771623 42.245 1.7235 42.245H42.8028C44.9079 45.2664 48.4052 47.249 52.3588 47.249C58.7778 47.249 64.0001 42.0267 64.0001 35.6076C63.9999 31.1001 61.4231 27.1857 57.6671 25.2522ZM3.44687 10.702H54.2203V14.032H3.44687V10.702ZM35.1423 28.7018H42.9938C42.5314 29.3273 42.1314 30.0009 41.7999 30.7129H35.1423C34.1907 30.7129 33.4188 31.4847 33.4188 32.4364C33.4188 33.3881 34.1906 34.1599 35.1423 34.1599H40.8105C40.7513 34.6347 40.7173 35.1172 40.7173 35.6077C40.7173 36.7142 40.8757 37.7836 41.1654 38.7983H3.44687V17.479H54.2203V24.1168C53.6138 24.019 52.9923 23.9661 52.3586 23.9661C50.4451 23.9661 48.6398 24.4333 47.0457 25.2551H35.1422C34.1906 25.2551 33.4187 26.0268 33.4187 26.9786C33.4187 27.9301 34.1904 28.7018 35.1423 28.7018ZM52.3585 43.802C47.84 43.802 44.1639 40.1259 44.1639 35.6074C44.1639 31.0889 47.84 27.4128 52.3585 27.4128C56.877 27.4128 60.553 31.0889 60.553 35.6074C60.553 40.1259 56.877 43.802 52.3585 43.802Z" fill="#FF4545"/>
<path d="M52.1637 39.5697C51.7388 39.5697 51.3136 39.4135 50.9815 39.0999L48.6081 36.8613C47.9156 36.2083 47.8837 35.1176 48.537 34.4251C49.19 33.7324 50.281 33.7008 50.9732 34.3539L52.1418 35.4563L54.9225 32.7339C55.6027 32.0679 56.6936 32.0797 57.3597 32.7596C58.0255 33.4397 58.0141 34.5309 57.3341 35.1968L53.37 39.0778C53.035 39.4052 52.5996 39.5697 52.1637 39.5697Z" fill="#FF4545"/>
</svg>
