<svg width="64" height="42" viewBox="0 0 64 42" fill="none" xmlns="http://www.w3.org/2000/svg">
<path d="M62.2541 18.6555H57.862V15.9784H60.507C61.4711 15.9784 62.253 15.1965 62.253 14.2324C62.253 13.2683 61.4711 12.4864 60.507 12.4864H57.862V9.80914H58.7601C59.7242 9.80914 60.5061 9.02727 60.5061 8.06314C60.5061 7.09901 59.7242 6.31714 58.7601 6.31714H57.862V2.78201C57.862 1.81788 57.0801 1.036 56.116 1.036H30.4546C29.4903 1.036 28.7086 1.81788 28.7086 2.78201V31.4099H24.4513V22.5703C24.4513 21.6062 23.6697 20.8243 22.7053 20.8243C21.741 20.8243 20.9593 21.6062 20.9593 22.5703V31.4099H20.3097C19.243 28.4453 16.4035 26.3192 13.0761 26.3192C9.74877 26.3192 6.90939 28.4452 5.84251 31.4099H4.67426C4.02226 31.4099 3.49188 30.8796 3.49188 30.2276V24.3734C3.49188 24.0232 3.64576 23.693 3.91401 23.4677C3.94626 23.4407 3.97751 23.4123 4.00776 23.383L8.23227 19.2779H14.6283C15.5925 19.2779 16.3743 18.496 16.3743 17.5319C16.3743 16.5678 15.5927 15.7859 14.6283 15.7859H9.84027L13.0141 7.42039C14.095 5.04064 16.4755 3.50051 19.078 3.49201L20.9592 3.50088V10.5801C20.9592 11.5443 21.7408 12.3261 22.7052 12.3261C23.6695 12.3261 24.4512 11.5443 24.4512 10.5801V1.76313C24.4512 0.802002 23.6745 0.0217502 22.7134 0.0171252L19.0805 0C15.0768 0.012875 11.4361 2.38413 9.80577 6.04089C9.79227 6.07114 9.77977 6.10164 9.76802 6.13251L5.69114 16.8779L1.6145 20.8393C0.587501 21.7287 0 23.0127 0 24.3734V30.2276C0 32.8052 2.09688 34.9019 4.67438 34.9019H5.44489C5.89101 38.7179 9.14214 41.6898 13.076 41.6898C17.0099 41.6898 20.261 38.7179 20.7072 34.9019H35.6387C36.0848 38.7179 39.3359 41.6898 43.2698 41.6898C44.234 41.6898 45.0158 40.908 45.0158 39.9438C45.0158 38.9797 44.234 38.1978 43.2698 38.1978C40.9576 38.1978 39.0766 36.3169 39.0766 34.0046C39.0766 33.8007 39.0919 33.6003 39.1202 33.4041C39.1377 33.2817 39.1613 33.1607 39.1893 33.0421C39.1916 33.0327 39.1937 33.0231 39.1959 33.0134C39.2236 32.8996 39.256 32.7878 39.2928 32.6781C39.2967 32.6667 39.3004 32.6553 39.3043 32.6442C39.3424 32.5334 39.3847 32.4249 39.4316 32.3186C39.4342 32.3128 39.4368 32.3071 39.4395 32.3013C39.9975 31.0547 41.1478 30.1367 42.5051 29.8823C42.5077 29.8819 42.5105 29.8814 42.5131 29.8809C42.6325 29.8588 42.7537 29.8418 42.8761 29.8303C42.8852 29.8294 42.8942 29.8289 42.9033 29.8282C43.0243 29.8176 43.1466 29.8113 43.2698 29.8113C43.3931 29.8113 43.5153 29.8176 43.6363 29.8282C43.6455 29.8289 43.6545 29.8294 43.6636 29.8303C43.786 29.8418 43.9072 29.8588 44.0266 29.8809C44.0292 29.8813 44.032 29.8818 44.0348 29.8823C45.3918 30.1367 46.5422 31.0544 47.1002 32.3008C47.103 32.3069 47.1058 32.3128 47.1085 32.3189C47.1552 32.4249 47.1975 32.5333 47.2356 32.6437C47.2396 32.6552 47.2435 32.6667 47.2473 32.6783C47.284 32.7879 47.3165 32.8997 47.3441 33.0132C47.3463 33.0228 47.3485 33.0326 47.3508 33.0422C47.3786 33.1606 47.4022 33.2807 47.4196 33.4029C47.4478 33.5993 47.4633 33.8003 47.4633 34.0042C47.4633 34.9683 48.2452 35.7502 49.2093 35.7502C49.8448 35.7502 50.3996 35.4093 50.705 34.9017H56.116C57.0801 34.9017 57.862 34.1198 57.862 33.1557V22.1473H62.2541C63.2182 22.1473 64.0001 21.3654 64.0001 20.4013C64 19.437 63.2185 18.6555 62.2541 18.6555ZM13.0761 38.1977C10.7639 38.1977 8.88289 36.3168 8.88289 34.0044C8.88289 31.6921 10.764 29.8109 13.0761 29.8109C15.3883 29.8109 17.2694 31.6921 17.2694 34.0044C17.2694 36.3168 15.3883 38.1977 13.0761 38.1977ZM54.37 31.4099H50.5035C50.4717 31.3218 50.4375 31.2348 50.4026 31.1482C50.3998 31.1412 50.3972 31.1341 50.3942 31.1271C50.3578 31.0374 50.3198 30.9489 50.2803 30.8613L50.2796 30.8599C49.2062 28.4767 46.9535 26.7364 44.2683 26.3862C44.2243 26.3804 44.1805 26.3744 44.1363 26.3694C44.0782 26.3628 44.0201 26.3572 43.9616 26.3518C43.8933 26.3455 43.8246 26.3407 43.7557 26.336C43.7112 26.3333 43.667 26.3302 43.6223 26.328C43.5053 26.3227 43.3878 26.3192 43.2696 26.3192C43.1513 26.3192 43.0341 26.3227 42.9171 26.328C42.8723 26.3302 42.8282 26.3333 42.7837 26.336C42.715 26.3404 42.6463 26.3454 42.5778 26.3518C42.5193 26.357 42.4612 26.3628 42.4031 26.3694C42.359 26.3746 42.3151 26.3804 42.2711 26.3862C39.5867 26.7363 37.3343 28.4759 36.2606 30.8584L36.2587 30.8624C36.2194 30.9496 36.1817 31.0374 36.1456 31.1263C36.1424 31.1342 36.1394 31.1421 36.1363 31.1499C36.1017 31.2361 36.0677 31.3223 36.0361 31.4099H32.2013L32.2003 4.52813H54.3699V6.31726H50.5592C49.5951 6.31726 48.8132 7.09914 48.8132 8.06326C48.8132 9.02739 49.5951 9.80927 50.5592 9.80927H54.3699V12.4865H52.3062C51.3421 12.4865 50.5602 13.2684 50.5602 14.2325C50.5602 15.1967 51.3421 15.9785 52.3062 15.9785H54.3699V18.6557H54.0534C53.0892 18.6557 52.3074 19.4375 52.3074 20.4017C52.3074 21.3658 53.0892 22.1477 54.0534 22.1477H54.3699L54.37 31.4099Z" fill="#FF4545"/>
</svg>
