<svg width="38" height="38" viewBox="0 0 38 38" fill="none" xmlns="http://www.w3.org/2000/svg">
<ellipse cx="18.7652" cy="19" rx="18.7652" ry="19" fill="#222222"/>
<path d="M29.1903 14.1451C28.5252 14.4313 27.8083 14.6193 27.0654 14.7093C27.8255 14.2759 28.4129 13.5891 28.6893 12.7632C27.9724 13.1721 27.1777 13.4582 26.3399 13.6218C25.6575 12.9186 24.6987 12.5098 23.6103 12.5098C21.5804 12.5098 19.922 14.0797 19.922 16.0175C19.922 16.2955 19.9565 16.5653 20.017 16.8188C16.942 16.6716 14.2038 15.2734 12.3812 13.1557C12.0616 13.6708 11.8802 14.2759 11.8802 14.9137C11.8802 16.132 12.5281 17.2113 13.5301 17.8245C12.9168 17.8245 12.3467 17.661 11.8457 17.4157V17.4402C11.8457 19.141 13.1241 20.5637 14.8171 20.8826C14.2736 21.024 13.7028 21.0436 13.15 20.9398C13.3846 21.6368 13.8441 22.2467 14.4638 22.6838C15.0836 23.1209 15.8324 23.3631 16.6051 23.3764C15.2953 24.358 13.6717 24.8886 12.0012 24.8809C11.7075 24.8809 11.4138 24.8645 11.1201 24.8318C12.7613 25.8294 14.7134 26.4099 16.8038 26.4099C23.6103 26.4099 27.3505 21.0624 27.3505 16.4263C27.3505 16.271 27.3505 16.1238 27.3418 15.9684C28.0674 15.4779 28.6893 14.8564 29.1903 14.1451Z" fill="white"/>
</svg>
