<svg width="38" height="38" viewBox="0 0 38 38" fill="none" xmlns="http://www.w3.org/2000/svg">
<ellipse cx="18.7652" cy="19" rx="18.7652" ry="19" fill="#222222"/>
<path d="M19.6641 12.1768C20.1095 12.1793 21.2238 12.1904 22.4082 12.239L22.8285 12.2578C24.0204 12.3149 25.2114 12.4139 25.8027 12.5819C26.5909 12.8088 27.2098 13.4691 27.4191 14.3067C27.7528 15.6374 27.7945 18.2323 27.7995 18.861L27.8003 18.9907V19.1391C27.7945 19.7678 27.7528 22.3635 27.4191 23.6933C27.2073 24.5336 26.5876 25.1947 25.8027 25.4181C25.2114 25.5862 24.0204 25.6851 22.8285 25.7423L22.4082 25.7619C21.2238 25.8097 20.1095 25.8216 19.6641 25.8233L19.4681 25.8242H19.2554C18.313 25.8182 14.3712 25.7747 13.1168 25.4181C12.3295 25.1912 11.7098 24.531 11.5004 23.6933C11.1668 22.3626 11.1251 19.7678 11.1201 19.1391V18.861C11.1251 18.2323 11.1668 15.6366 11.5004 14.3067C11.7123 13.4665 12.332 12.8054 13.1177 12.5828C14.3712 12.2254 18.3138 12.1819 19.2563 12.1768H19.6641ZM17.7917 16.0153V21.9865L22.796 19.0009L17.7917 16.0153Z" fill="white"/>
</svg>
